<svg width="543" height="809" viewBox="0 0 543 809" fill="none" xmlns="http://www.w3.org/2000/svg">
<path d="M216.388 25.8682C234.067 40.2491 246.907 58.8725 250.263 81.8057C250.348 83.652 250.389 85.5008 250.39 87.349C250.393 88.4288 250.395 89.5086 250.398 90.6212C250.395 92.3783 250.395 92.3783 250.392 94.1709C250.395 96.0419 250.395 96.0419 250.398 97.9506C250.401 101.38 250.4 104.809 250.397 108.239C250.395 111.896 250.397 115.553 250.399 119.21C250.4 125.411 250.398 131.612 250.393 137.813C250.388 144.041 250.388 150.27 250.393 156.498C250.411 181.494 250.411 181.494 250.36 192.863C250.357 193.611 250.354 194.36 250.35 195.131C250.336 198.142 250.322 201.153 250.307 204.164C250.262 213.105 250.267 222.043 250.358 230.984C250.416 236.718 250.437 242.452 250.431 248.186C250.43 251.518 250.453 254.845 250.513 258.177C250.788 273.907 249.837 284.84 239.564 297.189C237.696 299.511 236.197 302.018 234.689 304.583C234.175 305.432 233.661 306.281 233.132 307.156C232.618 308.01 232.104 308.863 231.575 309.743C230.386 311.708 229.196 313.673 228.005 315.638C227.396 316.643 226.787 317.648 226.16 318.683C216.444 334.672 206.579 350.572 196.711 366.467C195.33 368.697 193.957 370.932 192.587 373.169C176.054 400.061 159.059 419.702 127.263 427.806C126.763 435.277 126.763 435.277 128.95 442.306C133.555 447.283 137.82 448.547 144.435 449.044C163.584 449.441 182.159 443.822 197.263 431.806C198.009 431.235 198.756 430.664 199.525 430.075C210.54 421.059 217.509 407.907 225.029 396.033C232.207 384.767 239.667 373.692 247.138 362.618C247.761 361.693 248.385 360.767 249.027 359.813C261.061 341.955 273.033 324.364 287.728 308.564C289.703 306.414 291.597 304.246 293.45 301.993C296.696 298.168 300.428 295.024 304.263 291.806C305.138 291.043 306.013 290.279 306.915 289.493C336.407 264.158 372.253 250.3 411.297 250.545C413.328 250.556 415.359 250.545 417.39 250.532C440.453 250.503 464.369 255.842 484.263 267.806C484.899 268.186 485.534 268.566 486.19 268.958C512.167 284.78 531.427 309.206 539.263 338.806C539.884 341.902 540.413 344.99 540.868 348.114C541.222 350.755 541.222 350.755 541.779 353.126C542.286 355.934 542.391 358.518 542.394 361.37C542.398 362.484 542.402 363.598 542.406 364.745C542.405 365.964 542.404 367.183 542.403 368.439C542.408 370.387 542.408 370.387 542.412 372.375C542.42 375.979 542.422 379.583 542.423 383.187C542.425 387.076 542.432 390.964 542.439 394.853C542.453 403.36 542.459 411.867 542.463 420.374C542.466 425.695 542.47 431.015 542.474 436.335C542.487 451.085 542.497 465.835 542.5 480.584C542.501 481.528 542.501 482.473 542.501 483.445C542.501 484.392 542.501 485.338 542.502 486.313C542.502 488.23 542.503 490.148 542.503 492.065C542.503 493.017 542.503 493.968 542.504 494.948C542.508 510.319 542.525 525.69 542.548 541.061C542.572 556.869 542.585 572.677 542.586 588.485C542.587 597.35 542.592 606.214 542.611 615.079C542.626 622.637 542.631 630.195 542.623 637.753C542.619 641.6 542.62 645.447 542.634 649.294C542.706 670.076 542.469 691.082 536.513 711.181C536.256 712.077 535.999 712.974 535.735 713.898C525.431 748.776 503.887 776.337 471.939 793.958C451.128 804.69 430.355 808.236 407.138 808.181C406.276 808.18 405.415 808.18 404.527 808.179C391.752 808.142 379.537 807.682 367.263 803.806C366.237 803.492 366.237 803.492 365.191 803.172C340.055 795.251 316.175 779.906 303.384 756.345C294.409 739.023 292.961 723.765 293.032 704.446C293.033 702.302 293.033 700.159 293.032 698.015C293.032 692.231 293.046 686.447 293.064 680.664C293.075 677.05 293.084 673.437 293.092 669.823C293.119 657.278 293.159 644.733 293.21 632.188C293.255 620.767 293.271 609.346 293.274 597.925C293.277 588.286 293.304 578.647 293.348 569.008C293.374 563.294 293.39 557.581 293.382 551.867C293.376 546.506 293.398 541.145 293.441 535.783C293.452 533.826 293.453 531.868 293.443 529.911C293.394 519.027 293.691 510.958 300.263 501.806C301.291 500.105 302.309 498.399 303.314 496.685C304.398 494.911 305.486 493.139 306.575 491.368C307.815 489.342 309.055 487.316 310.294 485.29C311.265 483.705 311.265 483.705 312.255 482.089C315.352 477.024 318.432 471.948 321.511 466.872C322.579 465.112 323.648 463.352 324.717 461.592C328.034 456.133 331.346 450.671 334.643 445.2C350.695 418.563 350.695 418.563 358.263 407.806C358.812 407.014 359.361 406.223 359.927 405.407C371.828 389.167 387.679 376.34 407.263 370.806C409.595 370.462 411.928 370.126 414.263 369.806C415.813 368.255 415.507 366.769 415.575 364.618C415.501 359.911 414.493 357.367 411.263 353.806C405.052 349.219 399.528 349.107 391.95 349.181C390.798 349.188 389.645 349.196 388.457 349.204C378.19 349.468 369.555 351.532 360.263 355.806C359.074 356.347 357.886 356.889 356.661 357.446C339.086 366.255 328.384 380.091 318.013 396.181C317.074 397.626 316.134 399.07 315.194 400.514C309.904 408.654 304.672 416.829 299.518 425.055C293.825 434.133 287.953 443.094 282.07 452.05C280.361 454.657 278.659 457.268 276.958 459.88C269.539 471.216 261.518 481.462 252.368 491.478C250.512 493.53 248.729 495.624 246.95 497.743C235.375 510.901 221.076 520.796 206.2 529.868C205.618 530.226 205.035 530.584 204.435 530.953C200.765 533.131 197.083 534.729 193.082 536.156C190.915 536.93 188.815 537.836 186.7 538.743C180.074 541.398 173.208 543.2 166.263 544.806C165.227 545.061 164.191 545.316 163.124 545.579C152.573 547.971 142.367 548.322 131.575 548.243C130.692 548.24 129.809 548.237 128.9 548.234C115.987 548.168 103.679 547.657 91.2628 543.806C90.5587 543.602 89.8545 543.398 89.129 543.189C72.4156 538.281 56.6087 529.995 43.2628 518.806C42.3669 518.084 41.471 517.362 40.548 516.618C27.797 505.788 18.3706 491.846 11.2628 476.806C10.9364 476.14 10.6101 475.474 10.2738 474.788C7.38177 468.665 5.66659 462.436 4.07532 455.868C3.81557 454.848 3.55583 453.828 3.28821 452.776C0.656409 442.12 0.114624 431.844 0.129105 420.891C0.126839 419.622 0.124572 418.353 0.122238 417.046C0.11616 413.55 0.116248 410.054 0.117432 406.557C0.117637 402.777 0.112109 398.996 0.107376 395.216C0.099091 387.818 0.0963227 380.421 0.0957642 373.023C0.095288 367.007 0.0932221 360.99 0.0900574 354.973C0.0812568 337.893 0.0766418 320.814 0.0773926 303.734C0.0774325 302.814 0.0774735 301.894 0.0775146 300.947C0.0775555 300.026 0.0775946 299.105 0.0776367 298.157C0.0780431 283.239 0.0684827 268.321 0.0543823 253.403C0.0399988 238.064 0.0331032 222.725 0.0339661 207.385C0.0342973 198.782 0.0315904 190.179 0.0207977 181.576C0.0116667 174.251 0.009528 166.926 0.0162964 159.601C0.0195484 155.868 0.0196788 152.136 0.0109558 148.404C0.00156897 144.345 0.00789334 140.287 0.0155792 136.229C0.0104357 135.066 0.00529942 133.904 0 132.706C0.125474 102.556 10.1493 71.6036 30.2628 48.8057C30.9602 47.9884 31.6576 47.1712 32.3761 46.3291C77.2122 -5.11694 161.331 -16.296 216.388 25.8682Z" fill="#111110"/>
</svg>
